<svg width="70" height="70" viewBox="0 0 70 70" fill="none" xmlns="http://www.w3.org/2000/svg">
<path d="M38.0088 6.87787C36.2162 5.57062 33.7837 5.57062 31.9912 6.87787L10.3442 22.6641C7.49435 24.7423 8.96531 29.2506 12.4933 29.2506H13.125V46.1559C10.5279 47.4827 8.75 50.1826 8.75 53.2976V57.6697C8.75 58.8769 9.72939 59.8558 10.9375 59.8558H32.0833V55.4837H13.125V53.2976C13.125 51.2854 14.7573 49.6541 16.7708 49.6541H32.0833V48.1891C32.0833 47.1557 32.2983 46.1725 32.6859 45.2821H27.7083V29.2506H32.8125V45.007C33.6823 43.2168 35.2628 41.8357 37.1875 41.2314V29.2506H42.2917V33.7513C43.3854 33.1919 44.6247 32.8766 45.9375 32.8766H46.6667V29.2506H52.5V32.8766H56.1458C56.3917 32.8766 56.635 32.8877 56.875 32.9093V29.2506H57.5068C61.0348 29.2506 62.5056 24.7424 59.6558 22.6641L38.0088 6.87787ZM34.5701 10.4096C34.8262 10.2229 35.1738 10.2229 35.4299 10.4096L55.2705 24.8786H14.7295L34.5701 10.4096ZM17.5 45.2821V29.2506H23.3333V45.2821H17.5ZM40.8333 43.8141H39.375C36.9588 43.8141 35 45.7729 35 48.1891V52.5641H42.2917L42.5 52.5641C43.3189 52.5641 43.2919 52.5641 44.5 52.5641C45.7081 52.5641 45.1289 52.5641 46.5 52.5641L46.6667 52.5641H55.4167L55.5 52.5641C56.5104 52.5641 56.2919 52.5641 57.5 52.5641C58.7081 52.5641 58 52.5641 59.7917 52.5641H67.0833V48.1891C67.0833 45.7729 65.1245 43.8141 62.7083 43.8141H61.25V40.8974C61.25 38.0785 58.9648 35.7933 56.1458 35.7933H45.9375C43.1185 35.7933 40.8333 38.0785 40.8333 40.8974V43.8141ZM45.2083 40.8974C45.2083 40.4946 45.5347 40.1683 45.9375 40.1683H56.1458C56.5486 40.1683 56.875 40.4946 56.875 40.8974V43.8141H45.2083V40.8974ZM39.375 67.1474C36.9588 67.1474 35 65.1886 35 62.7724V56.9391H42.2917C43.2565 56.9391 43.2919 56.9391 44.5 56.9391C45.7081 56.9391 45.4142 56.9391 46.6667 56.9391H55.4167C56.6071 56.9391 56.2919 56.9391 57.5 56.9391C58.7081 56.9391 58.5 56.9391 59.7917 56.9391H67.0833V62.7724C67.0833 65.1886 65.1245 67.1474 62.7083 67.1474H39.375Z" fill="#0069C5"/>
</svg>
