<svg width="70" height="70" viewBox="0 0 70 70" fill="none" xmlns="http://www.w3.org/2000/svg">
<path d="M30.7694 7.38539C33.2133 5.3245 36.7867 5.3245 39.2306 7.38539L58.9181 23.9874C60.3966 25.2343 61.25 27.07 61.25 29.0042V37.228C60.0451 36.1497 58.5398 35.4001 56.875 35.121V29.0042C56.875 28.3595 56.5906 27.7476 56.0977 27.3319L36.4102 10.7299C35.5956 10.043 34.4044 10.043 33.5898 10.7299L13.9023 27.3319C13.4094 27.7476 13.125 28.3595 13.125 29.0042V57.5957C13.125 57.9982 13.4515 58.3249 13.8542 58.3249H24.0625C24.4652 58.3249 24.7916 57.9982 24.7916 57.5957V41.554C24.7916 38.7351 27.0769 36.4499 29.8958 36.4499H40.1042C42.9231 36.4499 45.2083 38.7351 45.2083 41.554V49.9566C42.6595 50.8576 40.8333 53.2884 40.8333 56.1458V41.554C40.8333 41.1512 40.507 40.8249 40.1042 40.8249H29.8958C29.493 40.8249 29.1666 41.1512 29.1666 41.554V57.5957C29.1666 60.4146 26.8815 62.6999 24.0625 62.6999H13.8542C11.0352 62.6999 8.75 60.4146 8.75 57.5957V29.0042C8.75 27.07 9.60327 25.2343 11.0819 23.9874L30.7694 7.38539ZM55.4167 37.9166C52.1949 37.9166 49.5833 40.5282 49.5833 43.75C49.5833 46.9717 52.1949 49.5833 55.4167 49.5833C58.6384 49.5833 61.25 46.9717 61.25 43.75C61.25 40.5282 58.6384 37.9166 55.4167 37.9166ZM43.75 56.1458C43.75 54.1321 45.3822 52.5 47.3958 52.5H63.4375C65.4512 52.5 67.0833 54.1321 67.0833 56.1458C67.0833 56.2313 67.0842 56.3167 67.0851 56.4022C67.0868 56.6096 67.0889 56.8178 67.0792 57.0249C67.0757 57.1022 67.0687 57.2063 67.0562 57.3335C67.0308 57.5869 66.9815 57.9346 66.8856 58.3456C66.6945 59.1649 66.3122 60.2592 65.5436 61.357C63.9514 63.6317 60.916 65.625 55.4167 65.625C49.9173 65.625 46.8819 63.6317 45.2897 61.357C44.5212 60.2592 44.1388 59.1649 43.9477 58.3456C43.8518 57.9346 43.8025 57.5869 43.7771 57.3335C43.7646 57.2063 43.7576 57.1022 43.7541 57.0249C43.75 56.6416 43.75 56.4258 43.75 56.154V56.1458Z" fill="#2B9041"/>
</svg>
