<svg width="31" height="30" viewBox="0 0 31 30" fill="none" xmlns="http://www.w3.org/2000/svg">
<path fill-rule="evenodd" clip-rule="evenodd" d="M22.6339 7.86612C23.122 8.35427 23.122 9.14573 22.6339 9.63388L10.1339 22.1339C9.64573 22.622 8.85427 22.622 8.36612 22.1339C7.87796 21.6457 7.87796 20.8543 8.36612 20.3661L20.8661 7.86612C21.3543 7.37796 22.1457 7.37796 22.6339 7.86612Z" fill="#999999"/>
<path fill-rule="evenodd" clip-rule="evenodd" d="M8 8.75C8 8.05964 8.55964 7.5 9.25 7.5H21.75C22.4404 7.5 23 8.05964 23 8.75V21.25C23 21.9404 22.4404 22.5 21.75 22.5C21.0596 22.5 20.5 21.9404 20.5 21.25V10H9.25C8.55964 10 8 9.44036 8 8.75Z" fill="#999999"/>
</svg>
