<?xml version="1.0" standalone="no"?>
<!DOCTYPE svg PUBLIC "-//W3C//DTD SVG 20010904//EN"
 "http://www.w3.org/TR/2001/REC-SVG-20010904/DTD/svg10.dtd">
<svg version="1.0" xmlns="http://www.w3.org/2000/svg"
 width="232.000000pt" height="208.000000pt" viewBox="0 0 232.000000 208.000000"
 preserveAspectRatio="xMidYMid meet">

<g transform="translate(0.000000,208.000000) scale(0.100000,-0.100000)"
fill="#000000" stroke="none">
<path d="M1745 1649 c-176 -55 -365 -115 -420 -132 l-100 -32 0 -133 c0 -72 1
-316 3 -542 l2 -410 420 0 420 0 0 675 c0 371 -1 675 -2 674 -2 0 -147 -45
-323 -100z m155 -609 l0 -459 -32 -6 c-18 -3 -132 -5 -253 -3 l-220 3 0 384 0
385 240 77 c132 42 246 77 253 78 9 1 12 -97 12 -459z"/>
<path d="M300 1070 l0 -670 423 2 422 3 3 536 2 537 -87 26 c-49 15 -237 74
-419 131 -182 58 -334 105 -338 105 -3 0 -6 -302 -6 -670z m425 350 c127 -40
236 -78 243 -83 9 -7 12 -96 12 -382 l0 -373 -22 -6 c-13 -3 -128 -6 -255 -6
l-233 0 0 466 c0 369 3 465 13 461 6 -2 116 -37 242 -77z"/>
</g>
</svg>
