<svg width="31" height="31" viewBox="0 0 31 31" fill="none" xmlns="http://www.w3.org/2000/svg">
<path d="M14.6033 4.39988C14.9701 3.65672 16.0299 3.65671 16.3967 4.39988L19.2588 10.1982C19.4043 10.493 19.6855 10.6975 20.0109 10.745L26.4129 11.6808C27.2328 11.8006 27.5596 12.8085 26.966 13.3866L22.3351 17.8971C22.0992 18.1268 21.9916 18.458 22.0472 18.7825L23.1399 25.1534C23.28 25.9703 22.4225 26.5933 21.6889 26.2075L15.9654 23.1976C15.6741 23.0444 15.3259 23.0444 15.0345 23.1976L9.31113 26.2075C8.5775 26.5933 7.71995 25.9703 7.86007 25.1534L8.95275 18.7825C9.00841 18.458 8.90075 18.1268 8.66487 17.8971L4.03401 13.3866C3.44041 12.8085 3.7672 11.8006 4.58711 11.6808L10.9891 10.745C11.3145 10.6975 11.5957 10.493 11.7412 10.1982L14.6033 4.39988Z" fill="#F8C128" stroke="#F8C128" stroke-width="2" stroke-linecap="round" stroke-linejoin="round"/>
</svg>
