<svg width="70" height="70" viewBox="0 0 70 70" fill="none" xmlns="http://www.w3.org/2000/svg">
<path d="M13.125 18.2292C13.125 15.4102 15.4102 13.125 18.2292 13.125H51.7708C54.5898 13.125 56.875 15.4102 56.875 18.2292V51.7708C56.875 54.5898 54.5898 56.875 51.7708 56.875H37.0023C36.4998 58.431 35.8012 59.899 34.9364 61.25H51.7708C57.006 61.25 61.25 57.006 61.25 51.7708V18.2292C61.25 12.994 57.006 8.75 51.7708 8.75H18.2292C12.994 8.75 8.75 12.994 8.75 18.2292V35.0636C10.101 34.1988 11.569 33.5003 13.125 32.9977V18.2292Z" fill="#16A43C"/>
<path d="M36.4583 19.6875C36.4583 18.4794 35.4789 17.5 34.2708 17.5C33.0627 17.5 32.0833 18.4794 32.0833 19.6875V37.1875C32.0833 38.3956 33.0627 39.375 34.2708 39.375H47.3958C48.6039 39.375 49.5833 38.3956 49.5833 37.1875C49.5833 35.9794 48.6039 35 47.3958 35H36.4583V19.6875Z" fill="#16A43C"/>
<path d="M26.53 44.9283L26.5298 44.9281C25.5698 43.9684 24.0135 43.9684 23.0535 44.9281L23.0534 44.9282L16.0417 51.9401L14.1341 50.0324L14.134 50.0323C13.174 49.0726 11.6176 49.0726 10.6576 50.0323L10.6575 50.0325C9.69748 50.9926 9.69749 52.5491 10.6575 53.5092L10.6575 53.5093L14.3034 57.1551L14.3035 57.1552C15.2635 58.1149 16.8198 58.1149 17.7798 57.1552L17.78 57.1551L26.53 48.4051L26.53 48.4051C27.49 47.4449 27.49 45.8884 26.53 44.9283ZM34 51.0417C34 59.349 27.2656 66.0833 18.9583 66.0833C10.651 66.0833 3.91666 59.349 3.91666 51.0417C3.91666 42.7343 10.651 36 18.9583 36C27.2656 36 34 42.7343 34 51.0417Z" fill="#16A43C" stroke="#16A43C" stroke-width="2"/>
</svg>
