<svg width="70" height="70" viewBox="0 0 70 70" fill="none" xmlns="http://www.w3.org/2000/svg">
<path d="M8.75 10.9375C8.75 9.72939 9.72939 8.75 10.9375 8.75H59.0625C60.2706 8.75 61.25 9.72939 61.25 10.9375C61.25 12.1456 60.2706 13.125 59.0625 13.125H56.0233L64.0051 32.7162C64.1118 32.9785 64.1667 33.2587 64.1667 33.5417C64.1667 39.1796 59.5963 43.75 53.9583 43.75C48.3204 43.75 43.75 39.1796 43.75 33.5417C43.75 33.2587 43.8048 32.9785 43.9116 32.7162L51.8933 13.125H37.1875V48.125H48.8542C52.4784 48.125 55.4167 51.0632 55.4167 54.6875C55.4167 58.3117 52.4784 61.25 48.8542 61.25H21.1544C17.53 61.25 14.5919 58.3117 14.5919 54.6875C14.5919 51.0632 17.53 48.125 21.1544 48.125H32.8125V13.125H18.1067L26.0883 32.7162C26.1951 32.9785 26.25 33.2587 26.25 33.5417C26.25 39.1796 21.6796 43.75 16.0417 43.75C10.4038 43.75 5.83334 39.1796 5.83334 33.5417C5.83334 33.2587 5.88823 32.9785 5.99501 32.7162L13.9767 13.125H10.9375C9.72939 13.125 8.75 12.1456 8.75 10.9375ZM18.9669 54.6875C18.9669 55.8956 19.9463 56.875 21.1544 56.875H48.8542C50.0623 56.875 51.0417 55.8956 51.0417 54.6875C51.0417 53.4794 50.0623 52.5 48.8542 52.5H21.1544C19.9463 52.5 18.9669 53.4794 18.9669 54.6875ZM21.451 35.7292H10.6324C11.4977 37.8671 13.5936 39.375 16.0417 39.375C18.4897 39.375 20.5856 37.8671 21.451 35.7292ZM20.8092 31.3542L16.0417 19.652L11.2741 31.3542H20.8092ZM53.9583 39.375C56.4063 39.375 58.5022 37.8671 59.3676 35.7292H48.5491C49.4145 37.8671 51.5104 39.375 53.9583 39.375ZM49.1908 31.3542H58.7259L53.9583 19.652L49.1908 31.3542Z" fill="#9B5615"/>
</svg>
