<svg width="70" height="70" viewBox="0 0 70 70" fill="none" xmlns="http://www.w3.org/2000/svg">
<path d="M38.5262 9.04931C37.0819 6.12279 32.9087 6.12282 31.4644 9.04931L24.5871 22.9844L9.20892 25.2189C5.97929 25.6882 4.68972 29.6572 7.0267 31.9351L18.1545 42.7819L15.5276 58.0979C14.9759 61.3147 18.352 63.7676 21.2407 62.2489L34.9953 55.0176L48.75 62.2489C51.6387 63.7676 55.0147 61.3147 54.4632 58.0979L51.8362 42.7819L62.9641 31.9351C65.3009 29.6572 64.0115 25.6882 60.7819 25.2189L45.4037 22.9844L38.5262 9.04931ZM28.4086 25.1268L34.9953 11.7805L41.5823 25.1268C42.1557 26.2889 43.2644 27.0944 44.5468 27.2808L59.2754 29.421L48.6176 39.8096C47.6898 40.7143 47.2663 42.0175 47.4854 43.295L50.0013 57.9641L36.8276 51.0381C35.6804 50.435 34.3102 50.435 33.1631 51.0381L19.9894 57.9641L22.5054 43.295C22.7245 42.0175 22.301 40.7143 21.373 39.8096L10.7153 29.421L25.4438 27.2808C26.7263 27.0944 27.835 26.2889 28.4086 25.1268Z" fill="#F8C128"/>
<path d="M3.39613 11.0294C2.64141 11.9727 2.79436 13.3493 3.73775 14.104L11.0294 19.9374C11.9728 20.6921 13.3494 20.5391 14.1041 19.5957C14.8588 18.6524 14.7059 17.2758 13.7625 16.5211L6.47079 10.6878C5.52739 9.93303 4.15081 10.086 3.39613 11.0294Z" fill="#F8C128"/>
<path d="M66.6041 53.1373C67.359 52.194 67.2058 50.8174 66.2626 50.0628L58.9709 44.2295C58.0274 43.4746 56.651 43.6278 55.8962 44.571C55.1413 45.5146 55.2945 46.8909 56.2377 47.6458L63.5294 53.4791C64.4729 54.2336 65.8493 54.0808 66.6041 53.1373Z" fill="#F8C128"/>
<path d="M3.73775 50.0628C2.79436 50.8174 2.64141 52.194 3.39613 53.1376C4.15081 54.0808 5.52739 54.2336 6.47079 53.4791L13.7625 47.6458C14.7059 46.8909 14.8588 45.5146 14.1041 44.571C13.3494 43.6278 11.9728 43.4746 11.0294 44.2295L3.73775 50.0628Z" fill="#F8C128"/>
<path d="M66.6041 11.0294C67.359 11.9727 67.2058 13.3493 66.2626 14.104L58.9709 19.9374C58.0274 20.6921 56.651 20.5391 55.8962 19.5957C55.1413 18.6524 55.2945 17.2758 56.2377 16.5211L63.5294 10.6878C64.4729 9.93303 65.8493 10.086 66.6041 11.0294Z" fill="#F8C128"/>
</svg>
