<svg width="70" height="70" viewBox="0 0 70 70" fill="none" xmlns="http://www.w3.org/2000/svg">
<path d="M63.4375 4.92188C61.3953 4.92188 60.0922 5.67383 58.7122 6.47064C56.7767 7.59003 54.1663 9.09607 47.3474 9.27765C46.6254 6.76544 44.3054 4.92188 41.5625 4.92188C39.5203 4.92188 38.2172 5.67383 36.8372 6.47064C34.9017 7.59003 32.2913 9.09607 25.4724 9.27765C24.7504 6.76544 22.4304 4.92188 19.6875 4.92188C17.6453 4.92188 16.3422 5.67383 14.9622 6.47064C12.8986 7.66266 10.0702 9.29688 2.1875 9.29688C1.28174 9.29688 0.546875 10.0317 0.546875 10.9375V63.4375C0.546875 64.3433 1.28174 65.0781 2.1875 65.0781C10.946 65.0781 14.2188 63.1897 16.6028 61.8118C17.8033 61.1218 18.5254 60.7031 19.6875 60.7031C21.1957 60.7031 22.4219 61.9293 22.4219 63.4375C22.4219 64.3433 23.1567 65.0781 24.0625 65.0781C32.821 65.0781 36.0938 63.1897 38.4778 61.8118C39.6783 61.1218 40.4004 60.7031 41.5625 60.7031C43.0707 60.7031 44.2969 61.9293 44.2969 63.4375C44.2969 64.3433 45.0317 65.0781 45.9375 65.0781C54.696 65.0781 57.9688 63.1897 60.3528 61.8118C61.5533 61.1218 62.2754 60.7031 63.4375 60.7031C64.9457 60.7031 66.1719 61.9293 66.1719 63.4375C66.1719 64.3433 66.9067 65.0781 67.8125 65.0781C68.7183 65.0781 69.4531 64.3433 69.4531 63.4375V10.9375C69.4531 7.61993 66.7529 4.92188 63.4375 4.92188ZM60.3528 9.31183C61.5533 8.62183 62.2754 8.20312 63.4375 8.20312C64.9457 8.20312 66.1719 9.42932 66.1719 10.9375V23.1103C65.3476 22.6849 64.4268 22.4219 63.4375 22.4219C61.3953 22.4219 60.0922 23.1738 58.7122 23.9706C56.8002 25.0764 54.213 26.5541 47.5781 26.7654V12.5327C55.0739 12.305 58.1298 10.5965 60.3528 9.31183ZM63.4375 39.9219C61.3953 39.9219 60.0922 40.6738 58.7122 41.4706C56.8002 42.5764 54.213 44.0541 47.5781 44.2654V30.0327C55.0739 29.805 58.1298 28.0965 60.3528 26.8118C61.5533 26.1218 62.2754 25.7031 63.4375 25.7031C64.9457 25.7031 66.1719 26.9293 66.1719 28.4375V40.6103C65.3476 40.1849 64.4268 39.9219 63.4375 39.9219ZM3.82812 30.0327C11.3239 29.805 14.3798 28.0965 16.6028 26.8118C17.8033 26.1218 18.5254 25.7031 19.6875 25.7031C21.1957 25.7031 22.4219 26.9293 22.4219 28.4375V40.6656C21.5911 40.2324 20.6875 39.9219 19.6875 39.9219C17.6453 39.9219 16.3422 40.6738 14.9622 41.4706C13.0537 42.5729 10.4374 44.0368 3.82812 44.2531V30.0327ZM25.7031 30.0327C33.1989 29.805 36.2548 28.0965 38.4778 26.8118C39.6783 26.1218 40.4004 25.7031 41.5625 25.7031C43.0707 25.7031 44.2969 26.9293 44.2969 28.4375V40.6656C43.4661 40.2324 42.5625 39.9219 41.5625 39.9219C39.5203 39.9219 38.2172 40.6738 36.8372 41.4706C34.9252 42.5764 32.338 44.0541 25.7031 44.2654V30.0327ZM38.4778 9.31183C39.6783 8.62183 40.4004 8.20312 41.5625 8.20312C43.0707 8.20312 44.2969 9.42932 44.2969 10.9375V23.1656C43.4661 22.7324 42.5625 22.4219 41.5625 22.4219C39.5203 22.4219 38.2172 23.1738 36.8372 23.9706C34.9252 25.0764 32.338 26.5541 25.7031 26.7654V12.5327C33.1989 12.305 36.2548 10.5965 38.4778 9.31183ZM16.6028 9.31183C17.8033 8.62183 18.5254 8.20312 19.6875 8.20312C21.1957 8.20312 22.4219 9.42932 22.4219 10.9375V23.1656C21.5911 22.7324 20.6875 22.4219 19.6875 22.4219C17.6453 22.4219 16.3422 23.1738 14.9622 23.9706C13.0537 25.0729 10.4374 26.5368 3.82812 26.7531V12.5546C11.369 12.3346 14.3726 10.6021 16.6028 9.31183ZM19.6875 57.4219C17.6453 57.4219 16.3422 58.1738 14.9622 58.9706C13.0481 60.0772 10.4761 61.5619 3.82812 61.7712V47.5327C11.3239 47.305 14.3798 45.5965 16.6028 44.3118C17.8033 43.6218 18.5254 43.2031 19.6875 43.2031C21.1957 43.2031 22.4219 44.4293 22.4219 45.9375V58.1656C21.5911 57.7324 20.6875 57.4219 19.6875 57.4219ZM41.5625 57.4219C39.5203 57.4219 38.2172 58.1738 36.8372 58.9706C34.9252 60.0764 32.338 61.5541 25.7031 61.7654V47.5327C33.1989 47.305 36.2548 45.5965 38.4778 44.3118C39.6783 43.6218 40.4004 43.2031 41.5625 43.2031C43.0707 43.2031 44.2969 44.4293 44.2969 45.9375V58.1656C43.4661 57.7324 42.5625 57.4219 41.5625 57.4219ZM66.1719 58.0798C65.3516 57.659 64.4202 57.4219 63.4375 57.4219C61.3953 57.4219 60.0922 58.1738 58.7122 58.9706C56.8002 60.0764 54.213 61.5541 47.5781 61.7654V47.5327C55.0739 47.305 58.1298 45.5965 60.3528 44.3118C61.5533 43.6218 62.2754 43.2031 63.4375 43.2031C64.9457 43.2031 66.1719 44.4293 66.1719 45.9375V58.0798Z" fill="#9B5615"/>
</svg>
