<?xml version="1.0" encoding="iso-8859-1"?>
<!-- Uploaded to: SVG Repo, www.svgrepo.com, Generator: SVG Repo Mixer Tools -->
<svg fill="#800080" height="800px" width="800px" version="1.1" id="Layer_1" xmlns="http://www.w3.org/2000/svg" xmlns:xlink="http://www.w3.org/1999/xlink" 
	 viewBox="0 0 512 512" xml:space="preserve">
<g>
	<g>
		<path d="M508.766,255.107L433.47,54.317c-7.305-19.482-26.193-32.571-47.002-32.571H125.532
			c-20.807,0-39.696,13.089-47.001,32.571L3.234,255.107c-12.294,32.788,11.99,67.823,47.001,67.823c6.539,0,122.674,0,134.01,0
			L170.86,456.79h-35.055c-9.241,0-16.732,7.492-16.732,16.732s7.492,16.732,16.732,16.732c5.07,0,235.306,0,240.39,0
			c9.241,0,16.732-7.492,16.732-16.732s-7.492-16.732-16.732-16.732h-35.055l-13.386-133.86c11.465,0,127.527,0,134.01,0
			C496.782,322.93,521.058,287.889,508.766,255.107z M154.5,289.465H50.236c-11.706,0-19.773-11.657-15.667-22.609l16.621-44.321
			h111.677L154.5,289.465z M167.049,189.07H63.739l25.099-66.93h86.578L167.049,189.07z M179.599,88.675h-78.212l8.478-22.609
			c2.435-6.493,8.731-10.856,15.667-10.856h58.25L179.599,88.675z M217.506,55.211h76.989l4.183,33.465h-85.356L217.506,55.211z
			 M209.139,122.14h93.722l8.366,66.93H200.773L209.139,122.14z M204.492,456.79l13.386-133.86h76.244l13.386,133.86H204.492z
			 M188.224,289.465l8.366-66.93h118.821l8.366,66.93C265.317,289.465,248.969,289.465,188.224,289.465z M328.219,55.211h58.25
			c6.936,0,13.232,4.363,15.667,10.856l8.478,22.609h-78.212L328.219,55.211z M336.585,122.14h86.578l25.099,66.93H344.951
			L336.585,122.14z M461.765,289.465H357.5l-8.366-66.93h111.677l16.621,44.321C481.542,277.817,473.461,289.465,461.765,289.465z"
			/>
	</g>
</g>
</svg>