<svg width="70" height="70" viewBox="0 0 70 70" fill="none" xmlns="http://www.w3.org/2000/svg">
<path d="M63.4375 19.6875C64.6455 19.6875 65.625 18.7091 65.625 17.5C65.625 16.2909 64.6455 15.3125 63.4375 15.3125H59.0625V8.75H63.4375C64.6455 8.75 65.625 7.77161 65.625 6.5625C65.625 5.35339 64.6455 4.375 63.4375 4.375H6.5625C5.35446 4.375 4.375 5.35339 4.375 6.5625C4.375 7.77161 5.35446 8.75 6.5625 8.75H10.9375V15.3125H6.5625C5.35446 15.3125 4.375 16.2909 4.375 17.5C4.375 18.7091 5.35446 19.6875 6.5625 19.6875H21.875V26.25H6.5625C5.35446 26.25 4.375 27.2284 4.375 28.4375C4.375 29.6466 5.35446 30.625 6.5625 30.625H10.9375V37.1875H6.5625C5.35446 37.1875 4.375 38.1659 4.375 39.375V40.9174V63.4375C4.375 64.6466 5.35446 65.625 6.5625 65.625H63.4375C64.6455 65.625 65.625 64.6466 65.625 63.4375V40.9174C65.625 40.3406 65.3975 39.7873 64.9905 39.3771L63.979 38.356C62.5208 36.8855 60.8565 35.7036 59.0625 34.8017V30.625H63.4375C64.6455 30.625 65.625 29.6466 65.625 28.4375C65.625 27.2284 64.6455 26.25 63.4375 26.25H48.125V19.6875H63.4375ZM54.6875 8.75V15.3125H37.1875V8.75H54.6875ZM15.3125 15.3125V8.75H32.8125V15.3125H15.3125ZM15.3125 30.625H32.8125V37.1875H15.3125V30.625ZM13.5234 43.2373L11.1999 41.5625H21.875V45.8873C18.9247 45.8873 15.9749 45.004 13.5234 43.2373ZM26.25 41.5625H32.5519L30.2277 43.2373C29.0051 44.1181 27.6584 44.7783 26.25 45.22V41.5625ZM61.25 41.8188V61.25H8.75V45.1898L10.9653 46.7877C17.3676 51.402 26.3824 51.402 32.7847 46.7877L42.3582 39.8898C44.8096 38.121 47.6956 37.1875 50.7045 37.1875C54.5444 37.1875 58.1557 38.6957 60.8719 41.4365L61.25 41.8188ZM54.6875 30.625V33.2495C53.3921 32.9686 52.0611 32.8125 50.7045 32.8125C46.7717 32.8125 43.0013 34.0323 39.8001 36.3394L38.6232 37.1875H37.1875V30.625H54.6875ZM43.75 26.25H26.25V19.6875H43.75V26.25Z" fill="#4A94E8"/>
</svg>
