<svg width="70" height="70" viewBox="0 0 70 70" fill="none" xmlns="http://www.w3.org/2000/svg">
<path fill-rule="evenodd" clip-rule="evenodd" d="M47.0312 26.2499V61.2499C47.0312 64.0703 44.7446 66.3541 41.9271 66.3541H21.5104C18.6929 66.3541 16.4062 64.0703 16.4062 61.2499V26.2499C16.4062 22.5749 17.8646 19.0516 20.4633 16.4528C23.0621 13.8541 26.5854 12.3958 30.2604 12.3958H33.1771C36.8521 12.3958 40.3754 13.8541 42.9742 16.4528C45.5729 19.0516 47.0312 22.5749 47.0312 26.2499ZM42.6562 26.2499C42.6562 23.7358 41.6588 21.3237 39.8796 19.5474C38.1033 17.7683 35.6912 16.7708 33.1771 16.7708H30.2604C27.7463 16.7708 25.3342 17.7683 23.5579 19.5474C21.7787 21.3237 20.7812 23.7358 20.7812 26.2499V61.2499C20.7812 61.6524 21.1079 61.9791 21.5104 61.9791H41.9271C42.3296 61.9791 42.6562 61.6524 42.6562 61.2499V26.2499Z" fill="#EC4169"/>
<path fill-rule="evenodd" clip-rule="evenodd" d="M38.2812 5.83325V14.5833C38.2812 15.7908 37.3013 16.7708 36.0938 16.7708H27.3438C26.1363 16.7708 25.1562 15.7908 25.1562 14.5833V5.83325C25.1562 4.62575 26.1363 3.64575 27.3438 3.64575H36.0938C37.3013 3.64575 38.2812 4.62575 38.2812 5.83325ZM33.9062 8.02075H29.5312V12.3958H33.9062V8.02075Z" fill="#EC4169"/>
<path fill-rule="evenodd" clip-rule="evenodd" d="M44.8438 25.5208C46.0513 25.5208 47.0312 26.5008 47.0312 27.7083C47.0312 28.9158 46.0513 29.8958 44.8438 29.8958H18.5938C17.3863 29.8958 16.4062 28.9158 16.4062 27.7083C16.4062 26.5008 17.3863 25.5208 18.5938 25.5208H44.8438Z" fill="#EC4169"/>
<path fill-rule="evenodd" clip-rule="evenodd" d="M44.8438 53.229C46.0513 53.229 47.0312 54.209 47.0312 55.4165C47.0312 56.624 46.0513 57.604 44.8438 57.604H18.5938C17.3863 57.604 16.4062 56.624 16.4062 55.4165C16.4062 54.209 17.3863 53.229 18.5938 53.229H44.8438Z" fill="#EC4169"/>
<path d="M42.6562 13.125C43.8644 13.125 44.8438 12.1456 44.8438 10.9375C44.8438 9.72938 43.8644 8.75 42.6562 8.75C41.4481 8.75 40.4688 9.72938 40.4688 10.9375C40.4688 12.1456 41.4481 13.125 42.6562 13.125Z" fill="#EC4169"/>
<path d="M49.2188 10.2083C50.4269 10.2083 51.4062 9.22887 51.4062 8.02075C51.4062 6.81263 50.4269 5.83325 49.2188 5.83325C48.0106 5.83325 47.0312 6.81263 47.0312 8.02075C47.0312 9.22887 48.0106 10.2083 49.2188 10.2083Z" fill="#EC4169"/>
<path d="M49.2188 16.0415C50.4269 16.0415 51.4062 15.0621 51.4062 13.854C51.4062 12.6459 50.4269 11.6665 49.2188 11.6665C48.0106 11.6665 47.0312 12.6459 47.0312 13.854C47.0312 15.0621 48.0106 16.0415 49.2188 16.0415Z" fill="#EC4169"/>
</svg>
